# xmcd CD database file
#
# Track frame offsets:
#	150
#	18719
#	34735
#	55491
#	68388
#	80762
#	100734
#	116090
#	127777
#	139105
#	156579
#	168898
#	182052
#	199663
#	213669
#	225256
#	240855
#	253838
#
# Disc length: 3886 seconds
#
# Revision: 0
# Processed by: cddbd v1.5.1PL2 Copyright (c) Steve Scherf et al.
# Submitted via: Feurio! 1.68 - http://www.feurio.com
#
DISCID=f20f2c12
DTITLE=Ben Harper - Both Side Of The Gun - CD 1 and 2
DYEAR=2006
DGENRE=Blues
TTITLE0=Morning Yearning
TTITLE1=Waiting for You
TTITLE2=Picture In A Frame
TTITLE3=Never Leave Lonely Alone
TTITLE4=Sweet Nothing Serenade
TTITLE5=Reason To Mourn
TTITLE6=More Than Sorry
TTITLE7=Cryin Won't Help You Now
TTITLE8=Happy Everyafter In Your Eyes
TTITLE9=Better Way
TTITLE10=Both Sides Of The Gun
TTITLE11=Engraved Invitation
TTITLE12=Black Rain
TTITLE13=Gather 'Round The Stone
TTITLE14=Please Don't Talk About Murder While I'm Eating
TTITLE15=Get It Like You Like It
TTITLE16=The Way You Found Me
TTITLE17=Serve Your Soul
EXTD=Virgin Records
EXTT0=
EXTT1=
EXTT2=
EXTT3=
EXTT4=
EXTT5=
EXTT6=
EXTT7=
EXTT8=
EXTT9=
EXTT10=
EXTT11=
EXTT12=
EXTT13=
EXTT14=
EXTT15=
EXTT16=
EXTT17=
PLAYORDER=
